<svg xmlns="http://www.w3.org/2000/svg" width="96" height="96" fill="none" viewBox="0 0 96 96" id="microphone">
  <path fill="url(#paint0_linear_714_4516)" fill-rule="evenodd" d="M66 24V51C66 60.9411 57.9411 69 48 69C38.0589 69 30 60.9411 30 51V24C30 14.0589 38.0589 6 48 6C57.9411 6 66 14.0589 66 24ZM48 11C40.8203 11 35 16.8203 35 24V51C35 58.1797 40.8203 64 48 64C55.1797 64 61 58.1797 61 51V24C61 16.8203 55.1797 11 48 11ZM43 51C43 48.2386 45.2386 46 48 46C50.7614 46 53 48.2386 53 51C53 53.7614 50.7614 56 48 56C45.2386 56 43 53.7614 43 51ZM26.5 49.5C26.5 48.1193 25.3807 47 24 47C22.6193 47 21.5 48.1193 21.5 49.5V51C21.5 64.7924 32.0369 76.1239 45.5 77.3836V82.5H41C39.6193 82.5 38.5 83.6193 38.5 85C38.5 86.3807 39.6193 87.5 41 87.5H48H55C56.3807 87.5 57.5 86.3807 57.5 85C57.5 83.6193 56.3807 82.5 55 82.5H50.5V77.3836C63.9631 76.1239 74.5 64.7924 74.5 51V49.5C74.5 48.1193 73.3807 47 72 47C70.6193 47 69.5 48.1193 69.5 49.5V51C69.5 62.8741 59.8741 72.5 48 72.5C36.1259 72.5 26.5 62.8741 26.5 51V49.5ZM83.2816 21.6596C84.0867 23.6722 84.5 25.8264 84.5 28C84.5 30.1736 84.0867 32.3278 83.2816 34.3404C82.4765 36.3532 81.2943 38.1875 79.7984 39.7366C78.8392 40.7298 77.2566 40.7575 76.2634 39.7984C75.2702 38.8392 75.2425 37.2566 76.2017 36.2634C77.242 35.186 78.0717 33.9024 78.6392 32.4835C79.2068 31.0645 79.5 29.5407 79.5 28C79.5 26.4593 79.2068 24.9355 78.6392 23.5165C78.0717 22.0976 77.242 20.814 76.2016 19.7366C75.2425 18.7434 75.2702 17.1608 76.2634 16.2016C77.2566 15.2425 78.8392 15.2702 79.7984 16.2634C81.2943 17.8125 82.4765 19.6468 83.2816 21.6596ZM11.5 28C11.5 25.8264 11.9133 23.6722 12.7184 21.6596C13.5235 19.6468 14.7057 17.8125 16.2016 16.2634C17.1608 15.2702 18.7434 15.2425 19.7366 16.2016C20.7298 17.1608 20.7575 18.7434 19.7984 19.7366C18.758 20.814 17.9283 22.0976 17.3608 23.5165C16.7932 24.9355 16.5 26.4593 16.5 28C16.5 29.5407 16.7932 31.0645 17.3608 32.4835C17.9283 33.9024 18.758 35.186 19.7983 36.2634C20.7575 37.2566 20.7298 38.8392 19.7366 39.7984C18.7434 40.7575 17.1608 40.7298 16.2016 39.7366C14.7057 38.1875 13.5235 36.3532 12.7184 34.3404C11.9133 32.3278 11.5 30.1736 11.5 28ZM76.4564 23.6348C77.1388 24.9996 77.5 26.4846 77.5 28C77.5 29.5154 77.1388 31.0004 76.4564 32.3652C75.7752 33.7276 74.7937 34.9321 73.5949 35.9252C72.5316 36.806 70.9556 36.6581 70.0748 35.5949C69.194 34.5316 69.3419 32.9556 70.4051 32.0748C71.1086 31.492 71.636 30.8257 71.9843 30.1291C72.3313 29.435 72.5 28.7132 72.5 28C72.5 27.2868 72.3313 26.565 71.9843 25.8709C71.636 25.1743 71.1086 24.508 70.4051 23.9252C69.3419 23.0444 69.194 21.4684 70.0748 20.4051C70.9556 19.3419 72.5316 19.194 73.5949 20.0748C74.7937 21.0679 75.7752 22.2724 76.4564 23.6348ZM18.5 28C18.5 26.4846 18.8612 24.9996 19.5436 23.6348C20.2248 22.2724 21.2063 21.0679 22.4051 20.0748C23.4684 19.194 25.0444 19.3419 25.9252 20.4051C26.806 21.4684 26.6581 23.0444 25.5949 23.9252C24.8914 24.508 24.364 25.1743 24.0157 25.8709C23.6687 26.565 23.5 27.2868 23.5 28C23.5 28.7132 23.6687 29.435 24.0157 30.1291C24.364 30.8257 24.8914 31.492 25.5949 32.0748C26.6581 32.9556 26.806 34.5316 25.9252 35.5949C25.0444 36.6581 23.4684 36.806 22.4051 35.9252C21.2063 34.9321 20.2248 33.7276 19.5436 32.3652C18.8612 31.0004 18.5 29.5154 18.5 28Z" clip-rule="evenodd"></path>
  <defs>
    <linearGradient id="paint0_linear_714_4516" x1="48" x2="48" y1="6" y2="87.5" gradientUnits="userSpaceOnUse">
      <stop stop-color="#041034"></stop>
      <stop offset="1" stop-color="#516EC4"></stop>
    </linearGradient>
  </defs>
</svg>
