<svg xmlns="http://www.w3.org/2000/svg" viewBox="0 0 47.5 47.5" id="chain">
  <defs>
    <clipPath id="a">
      <path d="M0 38h38V0H0v38Z"></path>
    </clipPath>
  </defs>
  <g fill="#8899a6" clip-path="url(#a)" transform="matrix(1.25 0 0 -1.25 0 47.5)">
    <path d="m16 28 6 6s6 6 12 0 0-12 0-12l-8-8s-6-6-12 0c-1.125 1.125-1.822 2.62-1.822 2.62l3.353 3.348S15.396 18.604 17 17c0 0 3-3 6 0l8 8s3 3 0 6-6 0-6 0l-3.729-3.729s-1.854 1.521-5.646.354L16 28Z"></path>
    <path d="m21.845 10-6-6s-6-6-12 0 0 12 0 12l8 8s6 6 12 0c1.125-1.125 1.822-2.62 1.822-2.62l-3.353-3.349s.135 1.365-1.469 2.969c0 0-3 3-6 0l-8-8s-3-3 0-6 6 0 6 0l3.729 3.729s1.854-1.52 5.646-.354L21.845 10Z"></path>
  </g>
</svg>
