<svg xmlns="http://www.w3.org/2000/svg" viewBox="0 0 16 16" id="Wifi">
  <path d="M4.5 4v1H5c3.32 0 6.002 2.68 6.002 6v.5H12V11c0-3.86-3.14-7-7-7h-.5zm0 2v.998H5c2.215 0 4 1.787 4 4.002v.5h1V11c0-2.756-2.244-5-5-5h-.5zm0 2v1H5c1.11 0 2 .89 2 2v.5h1V11c0-1.65-1.35-3-3-3h-.5zm.5 2c-.546 0-1 .454-1 1s.454 1 1 1 1-.454 1-1-.454-1-1-1z" color="#000" font-family="sans-serif" font-weight="400" overflow="visible" style="line-height:normal;text-indent:0;text-align:start;text-decoration-line:none;text-decoration-style:solid;text-decoration-color:#000;text-transform:none;block-progression:tb;isolation:auto;mix-blend-mode:normal;marker:none" fill="#ffffff" class="color000000 svgShape"></path>
</svg>
